<?xml version="1.0" encoding="UTF-8"?>
<svg xmlns="http://www.w3.org/2000/svg" xmlns:xlink="http://www.w3.org/1999/xlink" width="0" height="0">
<symbol id="scroll" width="14" height="16" viewBox="0 0 14 16" fill="none">
<path d="M6.46966 11.9211L0.396437 5.84786C0.103531 5.55496 0.103531 5.08008 0.396437 4.78721L1.10478 4.07886C1.39719 3.78646 1.87109 3.7859 2.16419 4.07761L7 8.89077L11.8358 4.07761C12.1289 3.7859 12.6028 3.78646 12.8952 4.07886L13.6035 4.78721C13.8964 5.08011 13.8964 5.55499 13.6035 5.84786L7.53034 11.9211C7.23744 12.214 6.76256 12.214 6.46966 11.9211Z" fill="white"/>
</symbol>

<symbol id="like" width="64" height="64" viewBox="0 0 64 64" fill="none">
<path d="M58.2837 35.8363C59.38 33.98 60 32 60 29.6063C60 24.1044 55.3477 18.9088 49.2725 18.9088H44.7125C45.3275 17.3075 45.8187 15.3925 45.8187 13.0913C45.8187 3.992 41.1075 0 33.91 0C26.2091 0 26.6484 11.8666 24.94 13.575C22.0966 16.4184 18.7381 21.8809 16.345 24H4C1.79087 24 0 25.7909 0 28V58C0 60.2091 1.79087 62 4 62H12C13.8616 62 15.426 60.7282 15.8722 59.0062C21.4359 59.1314 25.2547 63.9987 38.0975 63.9987C39 63.9987 40 64 40.875 64C50.5146 64 54.8732 59.0721 54.9925 52.0838C56.6574 49.7806 57.5299 46.6935 57.16 43.71C58.3918 41.4035 58.868 38.6671 58.2837 35.8363ZM50.565 42.565C52.135 45.2062 50.7225 48.7412 48.8225 49.7612C49.785 55.8587 46.6215 57.9987 42.1825 57.9987H37.455C28.5001 57.9987 22.7014 53.2713 16 53.2713V30H17.365C20.91 30 25.8625 21.1387 29.1825 17.8175C32.7275 14.2725 31.5462 8.36375 33.91 6C39.8187 6 39.8187 10.1225 39.8187 13.0913C39.8187 17.9875 36.2738 20.1813 36.2738 24.9088H49.2725C51.9112 24.9088 53.9888 27.2725 54 29.6362C54.0112 31.9987 52.3975 34.3625 51.2163 34.3625C52.9024 36.1819 53.2626 40.017 50.565 42.565ZM11 54C11 55.6569 9.65687 57 8 57C6.34312 57 5 55.6569 5 54C5 52.3431 6.34312 51 8 51C9.65687 51 11 52.3431 11 54Z" fill="#00A2FF"/>
</symbol>

<symbol id="check" width="64" height="64" viewBox="0 0 64 64" fill="none">
<path d="M32 1C14.8791 1 1 14.8791 1 32C1 49.1209 14.8791 63 32 63C49.1209 63 63 49.1209 63 32C63 14.8791 49.1209 1 32 1ZM32 7C45.8165 7 57 18.1814 57 32C57 45.8165 45.8186 57 32 57C18.1835 57 7 45.8186 7 32C7 18.1835 18.1814 7 32 7ZM49.5255 23.2834L46.7085 20.4436C46.1251 19.8555 45.1754 19.8516 44.5872 20.4351L26.9182 37.9621L19.4443 30.4275C18.8609 29.8394 17.9111 29.8355 17.323 30.4189L14.4831 33.2359C13.895 33.8192 13.8911 34.769 14.4746 35.3573L25.8223 46.7967C26.4056 47.3849 27.3554 47.3887 27.9435 46.8052L49.5171 25.4048C50.1051 24.8213 50.1089 23.8715 49.5255 23.2834Z" fill="#FF6363"/>
</symbol>

<symbol id="search" width="64" height="64" viewBox="0 0 64 64" fill="none">
<g clip-path="url(#clip0_1_168)">
<path d="M63.1296 55.3321L50.6662 42.8708C50.1037 42.3084 49.3411 41.9959 48.541 41.9959H46.5034C49.9537 37.5838 52.0038 32.0344 52.0038 25.9975C52.0038 11.6364 40.3655 0 26.0019 0C11.6384 0 0 11.6364 0 25.9975C0 40.3586 11.6384 51.9949 26.0019 51.9949C32.0398 51.9949 37.5903 49.9451 42.0031 46.4955V48.5328C42.0031 49.3327 42.3156 50.0951 42.8781 50.6576L55.3416 63.1188C56.5166 64.2937 58.4168 64.2937 59.5794 63.1188L63.1171 59.5817C64.2922 58.4068 64.2922 56.507 63.1296 55.3321ZM26.0019 41.9959C17.1638 41.9959 10.0007 34.8466 10.0007 25.9975C10.0007 17.1608 17.1513 9.99902 26.0019 9.99902C34.84 9.99902 42.0031 17.1483 42.0031 25.9975C42.0031 34.8341 34.8526 41.9959 26.0019 41.9959Z" fill="#5373FD"/>
</g>
<defs>
<clipPath>
<rect width="64" height="64" fill="white"/>
</clipPath>
</defs>
</symbol>

<symbol id="quote-left" width="20" height="20" viewBox="0 0 20 20" fill="none">
<path d="M18.125 10H15V7.5C15 6.12109 16.1211 5 17.5 5H17.8125C18.332 5 18.75 4.58203 18.75 4.0625V2.1875C18.75 1.66797 18.332 1.25 17.8125 1.25H17.5C14.0469 1.25 11.25 4.04688 11.25 7.5V16.875C11.25 17.9102 12.0898 18.75 13.125 18.75H18.125C19.1602 18.75 20 17.9102 20 16.875V11.875C20 10.8398 19.1602 10 18.125 10ZM6.875 10H3.75V7.5C3.75 6.12109 4.87109 5 6.25 5H6.5625C7.08203 5 7.5 4.58203 7.5 4.0625V2.1875C7.5 1.66797 7.08203 1.25 6.5625 1.25H6.25C2.79688 1.25 0 4.04688 0 7.5V16.875C0 17.9102 0.839844 18.75 1.875 18.75H6.875C7.91016 18.75 8.75 17.9102 8.75 16.875V11.875C8.75 10.8398 7.91016 10 6.875 10Z" fill="#5373FD"/>
</symbol>

<symbol id="pinterest" width="31" height="32" viewBox="0 0 31 32" fill="none">
<g clip-path="url(#clip0_1_297)">
<path d="M31 16C31 24.5625 24.0625 31.5 15.5 31.5C13.9 31.5 12.3625 31.2563 10.9125 30.8062C11.5438 29.775 12.4875 28.0875 12.8375 26.7437C13.025 26.0187 13.8 23.0562 13.8 23.0562C14.3063 24.0187 15.7812 24.8375 17.35 24.8375C22.025 24.8375 25.3937 20.5375 25.3937 15.1938C25.3937 10.075 21.2125 6.24375 15.8375 6.24375C9.15 6.24375 5.59375 10.7312 5.59375 15.625C5.59375 17.9 6.80625 20.7313 8.7375 21.6313C9.03125 21.7688 9.1875 21.7062 9.25625 21.425C9.30625 21.2125 9.56875 20.1562 9.6875 19.6688C9.725 19.5125 9.70625 19.375 9.58125 19.225C8.95 18.4438 8.4375 17.0187 8.4375 15.6875C8.4375 12.2688 11.025 8.9625 15.4375 8.9625C19.2437 8.9625 21.9125 11.5562 21.9125 15.2688C21.9125 19.4625 19.7938 22.3687 17.0375 22.3687C15.5188 22.3687 14.375 21.1125 14.7437 19.5688C15.1812 17.725 16.025 15.7375 16.025 14.4062C16.025 13.2188 15.3875 12.225 14.0625 12.225C12.5063 12.225 11.2563 13.8313 11.2563 15.9875C11.2563 17.3625 11.7188 18.2875 11.7188 18.2875C11.7188 18.2875 10.1875 24.775 9.90625 25.9875C9.59375 27.325 9.71875 29.2125 9.85 30.4375C4.0875 28.1812 0 22.5688 0 16C0 7.4375 6.9375 0.5 15.5 0.5C24.0625 0.5 31 7.4375 31 16Z" fill="var(--color-w)"/>
</g>
<defs>
<clipPath>
<rect width="31" height="32" fill="white"/>
</clipPath>
</defs>
</symbol>

<symbol id="youtube" width="36" height="32" viewBox="0 0 36 32" fill="none">
<path d="M34.3534 7.75519C33.9609 6.27706 32.8042 5.11294 31.3357 4.71788C28.6738 4 18 4 18 4C18 4 7.32623 4 4.66429 4.71788C3.19573 5.113 2.0391 6.27706 1.64654 7.75519C0.933289 10.4344 0.933289 16.0243 0.933289 16.0243C0.933289 16.0243 0.933289 21.6141 1.64654 24.2933C2.0391 25.7714 3.19573 26.8871 4.66429 27.2821C7.32623 28 18 28 18 28C18 28 28.6737 28 31.3357 27.2821C32.8042 26.8871 33.9609 25.7714 34.3534 24.2933C35.0667 21.6141 35.0667 16.0243 35.0667 16.0243C35.0667 16.0243 35.0667 10.4344 34.3534 7.75519ZM14.509 21.0994V10.9491L23.4302 16.0244L14.509 21.0994Z" fill="var(--color-w)"/>
</symbol>

<symbol id="linkedin" width="28" height="32" viewBox="0 0 56 64" fill="none">
<path d="M52 4H3.9875C1.7875 4 0 5.8125 0 8.0375V55.9625C0 58.1875 1.7875 60 3.9875 60H52C54.2 60 56 58.1875 56 55.9625V8.0375C56 5.8125 54.2 4 52 4ZM16.925 52H8.625V25.275H16.9375V52H16.925ZM12.775 21.625C10.1125 21.625 7.9625 19.4625 7.9625 16.8125C7.9625 14.1625 10.1125 12 12.775 12C15.425 12 17.5875 14.1625 17.5875 16.8125C17.5875 19.475 15.4375 21.625 12.775 21.625ZM48.0375 52H39.7375V39C39.7375 35.9 39.675 31.9125 35.425 31.9125C31.1 31.9125 30.4375 35.2875 30.4375 38.775V52H22.1375V25.275H30.1V28.925H30.2125C31.325 26.825 34.0375 24.6125 38.075 24.6125C46.475 24.6125 48.0375 30.15 48.0375 37.35V52Z" fill="var(--color-w)"/>
</symbol>

<symbol id="facebook" width="20" height="32" viewBox="0 0 20 32" fill="none">
<path d="M17.4463 18L18.335 12.2087H12.7782V8.45063C12.7782 6.86625 13.5544 5.32188 16.0432 5.32188H18.5694V0.39125C18.5694 0.39125 16.2769 0 14.085 0C9.50879 0 6.51754 2.77375 6.51754 7.795V12.2087H1.43066V18H6.51754V32H12.7782V18H17.4463Z" fill="var(--color-w)"/>
</symbol>

<symbol id="twitter" width="30" height="24" viewBox="0 0 30 24" fill="none">
<path d="M26.7375 5.98123C26.7563 6.24372 26.7563 6.50626 26.7563 6.76875C26.7563 14.775 20.6626 24 9.52505 24C6.09378 24 2.9063 23.0062 0.225037 21.2813C0.712555 21.3375 1.18126 21.3563 1.68753 21.3563C4.51874 21.3563 7.12503 20.4 9.20629 18.7688C6.54378 18.7125 4.31252 16.9688 3.54376 14.5687C3.91879 14.625 4.29377 14.6625 4.68755 14.6625C5.23129 14.6625 5.77508 14.5874 6.28129 14.4563C3.5063 13.8937 1.42499 11.4562 1.42499 8.51249V8.43752C2.23121 8.88752 3.16879 9.16877 4.16246 9.20622C2.53121 8.1187 1.4625 6.26247 1.4625 4.16246C1.4625 3.03748 1.76245 2.00623 2.28748 1.10622C5.26874 4.78122 9.75002 7.18118 14.775 7.44372C14.6812 6.99372 14.625 6.52502 14.625 6.05626C14.625 2.71872 17.325 0 20.6812 0C22.425 0 23.9999 0.731248 25.1062 1.9125C26.4749 1.65001 27.7874 1.14374 28.95 0.450003C28.4999 1.85628 27.5437 3.03754 26.2875 3.78748C27.5062 3.6563 28.6875 3.31872 29.775 2.85002C28.9501 4.04997 27.9188 5.11868 26.7375 5.98123Z" fill="var(--color-w)"/>
</symbol>

<symbol id="line" width="874" height="92" viewBox="0 0 874 92" fill="none" xmlns="http://www.w3.org/2000/svg">
<path opacity="0.502" d="M1 91C1 91 217.014 -110.278 442.118 91C442.118 91 639.939 -111.5 873 91" stroke="white" stroke-linecap="round" stroke-dasharray="2 5"/>
</symbol>
</svg>
