<?xml version="1.0" encoding="UTF-8"?>
<svg xmlns="http://www.w3.org/2000/svg" xmlns:xlink="http://www.w3.org/1999/xlink" width="0" height="0">
<symbol id="facebook-icon" width="14" height="24" viewBox="0 0 14 24" fill="">
<path d="M12.5847 13.5L13.2512 9.15656H9.08359V6.33797C9.08359 5.14969 9.66578 3.99141 11.5323 3.99141H13.427V0.293438C13.427 0.293438 11.7077 0 10.0637 0C6.63156 0 4.38812 2.08031 4.38812 5.84625V9.15656H0.572968V13.5H4.38812V24H9.08359V13.5H12.5847Z" fill="var(--color-1)"/>
</symbol>

<symbol id="instagram-icon" width="24" height="24" viewBox="0 0 24 24" fill="">
<path d="M12.0027 5.8467C8.59667 5.8467 5.84937 8.594 5.84937 12C5.84937 15.406 8.59667 18.1533 12.0027 18.1533C15.4087 18.1533 18.156 15.406 18.156 12C18.156 8.594 15.4087 5.8467 12.0027 5.8467ZM12.0027 16.0004C9.80162 16.0004 8.00222 14.2064 8.00222 12C8.00222 9.7936 9.79627 7.99955 12.0027 7.99955C14.2091 7.99955 16.0031 9.7936 16.0031 12C16.0031 14.2064 14.2037 16.0004 12.0027 16.0004ZM19.8429 5.595C19.8429 6.39295 19.2003 7.03024 18.4077 7.03024C17.6097 7.03024 16.9724 6.38759 16.9724 5.595C16.9724 4.80241 17.6151 4.15977 18.4077 4.15977C19.2003 4.15977 19.8429 4.80241 19.8429 5.595ZM23.9183 7.05166C23.8273 5.12909 23.3881 3.42608 21.9797 2.02298C20.5766 0.619882 18.8736 0.180743 16.951 0.0843468C14.9695 -0.0281156 9.03045 -0.0281156 7.04897 0.0843468C5.13176 0.175388 3.42876 0.614526 2.0203 2.01763C0.611841 3.42073 0.178058 5.12373 0.0816612 7.0463C-0.0308011 9.02778 -0.0308011 14.9669 0.0816612 16.9483C0.172702 18.8709 0.611841 20.5739 2.0203 21.977C3.42876 23.3801 5.1264 23.8193 7.04897 23.9157C9.03045 24.0281 14.9695 24.0281 16.951 23.9157C18.8736 23.8246 20.5766 23.3855 21.9797 21.977C23.3828 20.5739 23.8219 18.8709 23.9183 16.9483C24.0308 14.9669 24.0308 9.03314 23.9183 7.05166ZM21.3585 19.0744C20.9408 20.1241 20.1321 20.9327 19.0771 21.3558C17.4973 21.9824 13.7485 21.8378 12.0027 21.8378C10.2568 21.8378 6.50273 21.977 4.92825 21.3558C3.8786 20.9381 3.06995 20.1294 2.64687 19.0744C2.0203 17.4946 2.16489 13.7458 2.16489 12C2.16489 10.2542 2.02565 6.50006 2.64687 4.92558C3.06459 3.87593 3.87325 3.06728 4.92825 2.6442C6.50808 2.01763 10.2568 2.16222 12.0027 2.16222C13.7485 2.16222 17.5026 2.02298 19.0771 2.6442C20.1267 3.06192 20.9354 3.87058 21.3585 4.92558C21.985 6.50541 21.8404 10.2542 21.8404 12C21.8404 13.7458 21.985 17.4999 21.3585 19.0744Z" fill="var(--color-1)"/>
</symbol>

<symbol id="linkedin-icon" width="24" height="24" viewBox="0 0 24 24" fill="">
<path d="M5.37233 24H0.396506V7.97643H5.37233V24ZM2.88174 5.79066C1.29063 5.79066 6.86646e-05 4.47278 6.86646e-05 2.88167C6.86759e-05 2.1174 0.303672 1.38444 0.844091 0.844022C1.38451 0.303604 2.11747 0 2.88174 0C3.64601 0 4.37897 0.303604 4.91939 0.844022C5.45981 1.38444 5.76341 2.1174 5.76341 2.88167C5.76341 4.47278 4.47231 5.79066 2.88174 5.79066ZM23.9952 24H19.0301V16.1998C19.0301 14.3409 18.9926 11.9569 16.4431 11.9569C13.8561 11.9569 13.4597 13.9766 13.4597 16.0659V24H8.48919V7.97643H13.2614V10.1622H13.3311C13.9954 8.90323 15.6181 7.57463 18.039 7.57463C23.0749 7.57463 24.0006 10.8908 24.0006 15.198V24H23.9952Z" fill="var(--color-1)"/>
</symbol>

<symbol id="twitter-icon" width="20" height="17" viewBox="0 0 20 17" fill="">
<path d="M17.9441 4.0482C17.9568 4.22586 17.9568 4.40355 17.9568 4.58121C17.9568 9.99996 13.8325 16.2436 6.29441 16.2436C3.97207 16.2436 1.81473 15.571 0 14.4036C0.329961 14.4416 0.647187 14.4543 0.989844 14.4543C2.90605 14.4543 4.67004 13.8071 6.07867 12.703C4.27664 12.665 2.76648 11.4848 2.24617 9.86039C2.5 9.89844 2.75379 9.92383 3.02031 9.92383C3.38832 9.92383 3.75637 9.87305 4.09898 9.78426C2.22082 9.40351 0.812148 7.75379 0.812148 5.76141V5.71066C1.35781 6.01523 1.99238 6.20559 2.66492 6.23094C1.56086 5.49488 0.837539 4.23855 0.837539 2.81723C0.837539 2.05582 1.04055 1.35785 1.3959 0.748711C3.41367 3.23602 6.44668 4.86035 9.84766 5.03805C9.78422 4.73348 9.74613 4.41625 9.74613 4.09898C9.74613 1.84008 11.5736 0 13.8451 0C15.0253 0 16.0913 0.494922 16.84 1.29441C17.7664 1.11676 18.6547 0.774102 19.4416 0.30457C19.137 1.25637 18.4898 2.05586 17.6395 2.56344C18.4644 2.47465 19.2639 2.24617 19.9999 1.92895C19.4416 2.74109 18.7436 3.46441 17.9441 4.0482Z" fill="var(--color-1)"/>
</symbol>

</svg>
